# xmcd
#
# Track frame offsets: 
#        150
#        30697
#        65542
#        98777
#        127802
#        154670
#        176915
#        200062
#        231672
#
# Disc length: 3462 seconds
#
# Revision: 3
# Processed by: cddbd v1.5.2PL0 Copyright (c) Steve Scherf et al.
# Submitted via: ExactAudioCopy v0.99pb4
#
DISCID=7d0d8409
DTITLE=Various Artist - The Story of Jazz Vol.8 - The Soul-Funk Movement
DYEAR=1900
DGENRE=Jazz
TTITLE0=Horace Silver - Doodlin'
TTITLE1=Milt Jackson - Out of Nowhere
TTITLE2=Art Blakey - Whisper Not
TTITLE3=Ray Charles - Blues Waltz
TTITLE4=Wynton Kelly - Dark Eyes
TTITLE5=Wes Montgomery - Round Midnight
TTITLE6=Cannonball Adderley - Work Song
TTITLE7=Kenny Dorham - Oh Yeah, Oh Yeah
TTITLE8=Jimmy Smith - Bashin'
EXTD=
EXTT0=
EXTT1=
EXTT2=
EXTT3=
EXTT4=
EXTT5=
EXTT6=
EXTT7=
EXTT8=
PLAYORDER=
